<mxfile host="app.diagrams.net" agent="Mozilla/5.0 (Windows NT 10.0; Win64; x64) AppleWebKit/537.36 (KHTML, like Gecko) Chrome/140.0.0.0 Safari/537.36 Edg/140.0.0.0" version="28.2.1">
  <diagram name="ページ1" id="UF73gP8CVObMeiamURlC">
    <mxGraphModel dx="778" dy="460" grid="1" gridSize="10" guides="1" tooltips="1" connect="1" arrows="1" fold="1" page="1" pageScale="1" pageWidth="827" pageHeight="1169" math="0" shadow="0">
      <root>
        <mxCell id="0" />
        <mxCell id="1" parent="0" />
        <mxCell id="qr1jpbwWvrFJcuQ7BCQr-1" value="&lt;font style=&quot;font-size: 14px;&quot;&gt;Robo_dog&lt;/font&gt;" style="rounded=0;whiteSpace=wrap;html=1;" vertex="1" parent="1">
          <mxGeometry x="310" y="150" width="120" height="60" as="geometry" />
        </mxCell>
        <mxCell id="qr1jpbwWvrFJcuQ7BCQr-2" value="&lt;font style=&quot;font-size: 14px;&quot;&gt;名前&lt;/font&gt;" style="rounded=0;whiteSpace=wrap;html=1;" vertex="1" parent="1">
          <mxGeometry x="100" y="260" width="120" height="60" as="geometry" />
        </mxCell>
        <mxCell id="qr1jpbwWvrFJcuQ7BCQr-3" value="" style="endArrow=classic;html=1;rounded=0;entryX=0.5;entryY=1;entryDx=0;entryDy=0;exitX=0.5;exitY=0;exitDx=0;exitDy=0;" edge="1" parent="1" source="qr1jpbwWvrFJcuQ7BCQr-2" target="qr1jpbwWvrFJcuQ7BCQr-1">
          <mxGeometry width="50" height="50" relative="1" as="geometry">
            <mxPoint x="380" y="260" as="sourcePoint" />
            <mxPoint x="430" y="210" as="targetPoint" />
          </mxGeometry>
        </mxCell>
        <mxCell id="qr1jpbwWvrFJcuQ7BCQr-4" value="&lt;span style=&quot;font-size: 14px;&quot;&gt;２つの整数&lt;/span&gt;" style="rounded=0;whiteSpace=wrap;html=1;" vertex="1" parent="1">
          <mxGeometry x="720" y="260" width="120" height="60" as="geometry" />
        </mxCell>
        <mxCell id="qr1jpbwWvrFJcuQ7BCQr-8" value="&lt;span style=&quot;font-size: 14px;&quot;&gt;時刻&lt;/span&gt;" style="rounded=0;whiteSpace=wrap;html=1;" vertex="1" parent="1">
          <mxGeometry x="260" y="260" width="120" height="60" as="geometry" />
        </mxCell>
        <mxCell id="qr1jpbwWvrFJcuQ7BCQr-9" value="" style="endArrow=classic;html=1;rounded=0;entryX=0.5;entryY=1;entryDx=0;entryDy=0;exitX=0.5;exitY=0;exitDx=0;exitDy=0;" edge="1" parent="1" source="qr1jpbwWvrFJcuQ7BCQr-8" target="qr1jpbwWvrFJcuQ7BCQr-1">
          <mxGeometry width="50" height="50" relative="1" as="geometry">
            <mxPoint x="560" y="270" as="sourcePoint" />
            <mxPoint x="550" y="220" as="targetPoint" />
          </mxGeometry>
        </mxCell>
        <mxCell id="qr1jpbwWvrFJcuQ7BCQr-11" value="&lt;span style=&quot;font-size: 14px;&quot;&gt;挨拶&lt;/span&gt;" style="rounded=0;whiteSpace=wrap;html=1;" vertex="1" parent="1">
          <mxGeometry x="414" y="260" width="120" height="60" as="geometry" />
        </mxCell>
        <mxCell id="qr1jpbwWvrFJcuQ7BCQr-12" value="" style="endArrow=classic;html=1;rounded=0;entryX=0.561;entryY=1.033;entryDx=0;entryDy=0;exitX=0.5;exitY=0;exitDx=0;exitDy=0;entryPerimeter=0;" edge="1" parent="1" source="qr1jpbwWvrFJcuQ7BCQr-11" target="qr1jpbwWvrFJcuQ7BCQr-1">
          <mxGeometry width="50" height="50" relative="1" as="geometry">
            <mxPoint x="820" y="230" as="sourcePoint" />
            <mxPoint x="810" y="180" as="targetPoint" />
          </mxGeometry>
        </mxCell>
        <mxCell id="qr1jpbwWvrFJcuQ7BCQr-13" value="&lt;span style=&quot;font-size: 14px;&quot;&gt;足し算結果&lt;/span&gt;" style="rounded=0;whiteSpace=wrap;html=1;" vertex="1" parent="1">
          <mxGeometry x="580" y="260" width="120" height="60" as="geometry" />
        </mxCell>
        <mxCell id="qr1jpbwWvrFJcuQ7BCQr-14" value="" style="endArrow=classic;html=1;rounded=0;entryX=0.75;entryY=1;entryDx=0;entryDy=0;exitX=0.5;exitY=0;exitDx=0;exitDy=0;" edge="1" parent="1" source="qr1jpbwWvrFJcuQ7BCQr-13" target="qr1jpbwWvrFJcuQ7BCQr-1">
          <mxGeometry width="50" height="50" relative="1" as="geometry">
            <mxPoint x="680" y="250" as="sourcePoint" />
            <mxPoint x="800" y="170" as="targetPoint" />
          </mxGeometry>
        </mxCell>
        <mxCell id="qr1jpbwWvrFJcuQ7BCQr-15" value="" style="endArrow=classic;html=1;rounded=0;entryX=1;entryY=1;entryDx=0;entryDy=0;exitX=0.5;exitY=0;exitDx=0;exitDy=0;" edge="1" parent="1" source="qr1jpbwWvrFJcuQ7BCQr-4" target="qr1jpbwWvrFJcuQ7BCQr-1">
          <mxGeometry width="50" height="50" relative="1" as="geometry">
            <mxPoint x="800" y="270" as="sourcePoint" />
            <mxPoint x="900" y="170" as="targetPoint" />
          </mxGeometry>
        </mxCell>
        <mxCell id="qr1jpbwWvrFJcuQ7BCQr-16" value="ドメインモデル＝名詞リストを、線で結んだもの" style="text;html=1;align=center;verticalAlign=middle;whiteSpace=wrap;rounded=0;" vertex="1" parent="1">
          <mxGeometry x="50" y="100" width="290" height="30" as="geometry" />
        </mxCell>
      </root>
    </mxGraphModel>
  </diagram>
</mxfile>
